<svg xmlns="http://www.w3.org/2000/svg" viewBox="0 0 24 24" fill="#000000"><path d="M4.199 8.955h1.18v5.442H4.199V8.955zm2.744 0h3.574v1.173H8.123v.918h2.138v1.173H8.123v.991h2.39v1.181H6.943V8.955zm6.545 0h1.4l-1.572 2.784 1.572 2.658h-1.4l-.916-1.758-.917 1.758h-1.395l1.571-2.658-1.571-2.784h1.395l.917 1.76.916-1.76zm4.473 3.256c.652 0 1.181.53 1.181 1.181v.027c0 .653-.529 1.181-1.181 1.181h-.891v-2.389h.891zM16.07 8.955h2.188c1.22 0 2.209.988 2.209 2.209v.027c0 .914-.543 1.621-1.253 2.015l.065-.03 1.188 1.216h-1.545l-1.294-1.346h-1.558v1.346h-1.18v-5.442h1.18v2.389h1.18z"/></svg>
