<svg xmlns="http://www.w3.org/2000/svg" viewBox="0 0 128 128">
  <path fill="#68A063" d="M120.9 49.8c-1.7-2.7-3.8-5.1-6.2-7.2-1.7-1.5-3.5-2.9-5.4-4.1-2.3-1.5-4.7-2.8-7.2-3.9-2.8-1.3-5.7-2.4-8.7-3.3-3.2-1-6.5-1.7-9.8-2.2-3.4-.5-6.9-.7-10.4-.7-3.5 0-7 .2-10.4.7-3.3.5-6.6 1.2-9.8 2.2-3.1.9-6.1 2-8.9 3.3-2.5 1.1-4.9 2.4-7.2 3.9-1.9 1.2-3.7 2.6-5.4 4.1-2.4 2.1-4.5 4.5-6.2 7.2-1.7 2.7-3 5.6-3.9 8.6-.9 3.1-1.4 6.3-1.4 9.6 0 3.3.5 6.5 1.4 9.6.9 3 2.2 5.9 3.9 8.6 1.7 2.7 3.8 5.1 6.2 7.2 1.7 1.5 3.5 2.9 5.4 4.1 2.3 1.5 4.7 2.8 7.2 3.9 2.8 1.3 5.7 2.4 8.7 3.3 3.2 1 6.5 1.7 9.8 2.2 3.4.5 6.9.7 10.4.7 3.5 0 7-.2 10.4-.7 3.3-.5 6.6-1.2 9.8-2.2 3.1-.9 6.1-2 8.9-3.3 2.5-1.1 4.9-2.4 7.2-3.9 1.9-1.2 3.7-2.6 5.4-4.1 2.4-2.1 4.5-4.5 6.2-7.2 1.7-2.7 3-5.6 3.9-8.6.9-3.1 1.4-6.3 1.4-9.6 0-3.3-.5-6.5-1.4-9.6-.9-3-2.2-5.9-3.9-8.6z"/>
  <path fill="#FFFFFF" d="M85.2 63.6c-1.3-1.3-2.9-2.3-4.7-3.1-1.8-.8-3.7-1.2-5.7-1.2-2 0-3.9.4-5.7 1.2-1.8.8-3.4 1.8-4.7 3.1-1.3 1.3-2.3 2.9-3.1 4.7-.8 1.8-1.2 3.7-1.2 5.7 0 2 .4 3.9 1.2 5.7.8 1.8 1.8 3.4 3.1 4.7 1.3 1.3 2.9 2.3 4.7 3.1 1.8.8 3.7 1.2 5.7 1.2 2 0 3.9-.4 5.7-1.2 1.8-.8 3.4-1.8 4.7-3.1 1.3-1.3 2.3-2.9 3.1-4.7.8-1.8 1.2-3.7 1.2-5.7 0-2-.4-3.9-1.2-5.7-.8-1.8-1.8-3.4-3.1-4.7z"/>
</svg>