<svg xmlns="http://www.w3.org/2000/svg" width="24" height="24" viewBox="0 0 24 24"><path fill="#fff" d="m17.018 2.048l-.965-.261l-.523 1.93l.966.262a5 5 0 0 1 3.521 3.524l.26.965l1.931-.521l-.26-.965a7 7 0 0 0-4.93-4.934m-.914 3.378l-.965-.261l-.523 1.93l.966.262a1.5 1.5 0 0 1 1.056 1.057l.26.965l1.931-.52l-.26-.966a3.5 3.5 0 0 0-2.465-2.467"/><path fill="#fff" d="M9.58 2H1v1a19.9 19.9 0 0 0 3.196 10.85a20.1 20.1 0 0 0 5.954 5.954A19.9 19.9 0 0 0 21 23h1v-8.58l-6.69-1.487l-1.86 1.86a14.1 14.1 0 0 1-4.242-4.243l1.859-1.86z"/></svg>