<svg xmlns="http://www.w3.org/2000/svg" viewBox="0 0 24 24" fill="#3178C6"><path d="M1.125 0C.502 0 0 .502 0 1.125v21.75C0 23.498.502 24 1.125 24h21.75c.623 0 1.125-.502 1.125-1.125V1.125C24 .502 23.498 0 22.875 0H1.125zm17.363 9.75c.612 0 1.154.037 1.627.111a6.38 6.38 0 0 1 1.306.34v2.458a3.95 3.95 0 0 0-.643-.361 5.093 5.093 0 0 0-.717-.26 5.453 5.453 0 0 0-.814-.142 6.619 6.619 0 0 0-.793-.047c-.503 0-.94.09-1.31.273a1.91 1.91 0 0 0-.812.75 3.14 3.14 0 0 0-.297 1.09c-.012.223-.018.472-.018.744V24h-3.41V9.75h3.41v1.64h.047c.132-.544.447-1.013.945-1.408.497-.394 1.13-.59 1.898-.59zm-13.68-.023c.338 0 .61.037.818.111a2.16 2.16 0 0 1 .547.283c.152.115.253.24.304.375.05.135.076.262.076.38v.024h3.188v-.142a2.3 2.3 0 0 0-.448-1.558 3.51 3.51 0 0 0-1.144-1.014 5.378 5.378 0 0 0-1.637-.547 9.53 9.53 0 0 0-1.928-.211 9.3 9.3 0 0 0-1.745.164c-.563.11-.26.244-.242.402a4.42 4.42 0 0 0-1.15.751 3.65 3.65 0 0 0-.785 1.122 3.6 3.6 0 0 0-.28 1.408c0 .54.088 1.01.263 1.41a3.1 3.1 0 0 0 .753 1.05 4.3 4.3 0 0 0 1.18.7c.463.193.978.337 1.545.433a10.84 10.84 0 0 1 2.507.64c.264.103.486.234.664.394.178.16.315.352.41.576.095.223.142.484.142.782a1.8 1.8 0 0 1-.227.91 1.4 1.4 0 0 1-.617.585c-.26.132-.56.223-.9.273-.34.05-.688.075-1.043.075-.48 0-.91-.048-1.294-.143a3.5 3.5 0 0 1-1.03-.393c-.29-.166-.52-.357-.69-.572a2.1 2.1 0 0 1-.365-.74L0 21.03a3.1 3.1 0 0 0 .54 1.354c.273.407.625.757 1.056 1.05.43.292.932.51 1.503.655a8.7 8.7 0 0 0 1.957.218 8.8 8.8 0 0 0 1.865-.195 6.3 6.3 0 0 0 1.62-.57 4.1 4.1 0 0 0 1.21-.97c.307-.37.54-.803.7-1.3.16-.497.24-.1.24-1.575a4.3 4.3 0 0 0-.315-1.64c-.21-.52-.516-.96-.92-1.32a4.8 4.8 0 0 0-1.427-.89 6.7 6.7 0 0 0-1.845-.5c-.56-.08-.34-.16-.32-.26a3.6 3.6 0 0 1-1.42-.563c-.158-.1-.285-.23-.38-.387a1.1 1.1 0 0 1-.14-.582c0-.3.075-.544.225-.733a1.3 1.3 0 0 1 .52-.423c.214-.1.455-.164.723-.195.268-.03.52-.047.755-.047z"/></svg>
